<svg width="35" height="35" viewBox="0 0 35 35" fill="none" xmlns="http://www.w3.org/2000/svg">
<circle cx="17.5" cy="17.5" r="17" fill="white" stroke="#A7A7A7"/>
<path d="M17.5 21C19.433 21 21 19.433 21 17.5C21 15.567 19.433 14 17.5 14C15.567 14 14 15.567 14 17.5C14 19.433 15.567 21 17.5 21Z" fill="black"/>
<path d="M14.35 7L12.4285 9.11111H9.1C7.945 9.11111 7 10.0611 7 11.2222V23.8889C7 25.05 7.945 26 9.1 26H25.9C27.055 26 28 25.05 28 23.8889V11.2222C28 10.0611 27.055 9.11111 25.9 9.11111H22.5715L20.65 7H14.35ZM17.5 22.8333C14.602 22.8333 12.25 20.4689 12.25 17.5556C12.25 14.6422 14.602 12.2778 17.5 12.2778C20.398 12.2778 22.75 14.6422 22.75 17.5556C22.75 20.4689 20.398 22.8333 17.5 22.8333Z" fill="black"/>
</svg>
