<svg width="16" height="16" viewBox="0 0 16 16" fill="none" xmlns="http://www.w3.org/2000/svg">
<path d="M0 16H1.6C2.04 16 2.4 15.6 2.4 15.1111V7.11111C2.4 6.62222 2.04 6.22222 1.6 6.22222H0V16ZM15.864 9.67111C15.952 9.44889 16 9.20889 16 8.96V8C16 7.02222 15.28 6.22222 14.4 6.22222H10L10.736 2.08889C10.776 1.89333 10.752 1.68 10.672 1.50222C10.488 1.10222 10.256 0.737778 9.968 0.417778L9.6 0L4.472 5.69778C4.168 6.03556 4 6.48889 4 6.96V13.9289C4 15.0667 4.84 16 5.872 16H12.36C12.92 16 13.448 15.6711 13.736 15.1378L15.864 9.67111Z" fill="#4E9EFD"/>
</svg>
