<svg width="18" height="5" viewBox="0 0 18 5" fill="none" xmlns="http://www.w3.org/2000/svg">
<path d="M2.25 0C1.0125 0 0 1.0125 0 2.25C0 3.4875 1.0125 4.5 2.25 4.5C3.4875 4.5 4.5 3.4875 4.5 2.25C4.5 1.0125 3.4875 0 2.25 0ZM15.75 0C14.5125 0 13.5 1.0125 13.5 2.25C13.5 3.4875 14.5125 4.5 15.75 4.5C16.9875 4.5 18 3.4875 18 2.25C18 1.0125 16.9875 0 15.75 0ZM9 0C7.7625 0 6.75 1.0125 6.75 2.25C6.75 3.4875 7.7625 4.5 9 4.5C10.2375 4.5 11.25 3.4875 11.25 2.25C11.25 1.0125 10.2375 0 9 0Z" fill="#A7A7A7"/>
</svg>
