<svg width="20" height="24" viewBox="0 0 20 24" fill="none" xmlns="http://www.w3.org/2000/svg">
<path d="M10 0L5.55556 4L10 8V5C14.2878 5 17.7778 8.14 17.7778 12C17.7778 12.88 17.5881 13.7201 17.2569 14.4961L18.941 16.0098C19.6132 14.8008 20 13.442 20 12C20 7.038 15.5144 3 10 3V0ZM1.05903 7.99023C0.386806 9.19923 0 10.558 0 12C0 16.962 4.48556 21 10 21V24L14.4444 20L10 16V19C5.71222 19 2.22222 15.86 2.22222 12C2.22222 11.12 2.41194 10.2799 2.74306 9.50391L1.05903 7.99023Z" fill="#D3D3D3"/>
</svg>
