<svg width="20" height="24" viewBox="0 0 20 24" fill="none" xmlns="http://www.w3.org/2000/svg">
<path d="M10 5.45455V8.72727L15 4.36364L10 0V3.27273C4.475 3.27273 0 7.17818 0 12C0 13.7127 0.575 15.3055 1.55 16.6473L3.375 15.0545C2.8125 14.1491 2.5 13.1018 2.5 12C2.5 8.38909 5.8625 5.45455 10 5.45455ZM18.45 7.35273L16.625 8.94545C17.175 9.86182 17.5 10.8982 17.5 12C17.5 15.6109 14.1375 18.5455 10 18.5455V15.2727L5 19.6364L10 24V20.7273C15.525 20.7273 20 16.8218 20 12C20 10.2873 19.425 8.69455 18.45 7.35273Z" fill="#4E9EFD"/>
</svg>
