<svg width="32" height="32" viewBox="0 0 32 32" fill="none" xmlns="http://www.w3.org/2000/svg">
<path d="M21.4248 21.1258H22.4554L30.5865 29.2732L29.2732 30.5865L21.1258 22.4554V21.4248V21.1258H21.4248ZM19.6114 19.6114L18.9799 20.1542C17.0683 21.7975 14.5897 22.785 11.8925 22.785C5.87647 22.785 1 17.9086 1 11.8925C1 5.87647 5.87647 1 11.8925 1C17.9086 1 22.785 5.87647 22.785 11.8925C22.785 14.5897 21.7975 17.0683 20.1542 18.9799L19.6114 19.6114ZM2.65923 11.8925C2.65923 17.0005 6.78448 21.1258 11.8925 21.1258C17.0005 21.1258 21.1258 17.0005 21.1258 11.8925C21.1258 6.78448 17.0005 2.65923 11.8925 2.65923C6.78448 2.65923 2.65923 6.78448 2.65923 11.8925Z" stroke="#4E9EFD" stroke-width="2"/>
</svg>
